<svg width="143" height="158" viewBox="0 0 143 158" fill="none" xmlns="http://www.w3.org/2000/svg">
<path d="M71.4906 158C110.974 158 142.981 137.159 142.981 111.451C142.981 85.743 110.974 64.9023 71.4906 64.9023C32.0074 64.9023 0 85.743 0 111.451C0 137.159 32.0074 158 71.4906 158Z" fill="#EB0202"/>
<path d="M41.6279 121.971C39.3961 121.971 37.4163 121.666 35.6884 121.056C33.9678 120.452 32.5171 119.562 31.3364 118.385C30.1557 117.215 29.2594 115.779 28.6475 114.078C28.0355 112.376 27.7295 110.435 27.7295 108.252C27.7295 106.127 28.0391 104.218 28.6582 102.523C29.2774 100.829 30.1773 99.3862 31.358 98.1946C32.5459 96.996 33.9894 96.0804 35.6884 95.449C37.3875 94.817 39.3169 94.501 41.4767 94.501C43.5429 94.501 45.3644 94.8244 46.941 95.4703C48.5177 96.1166 49.8424 97.0029 50.9151 98.1302C51.995 99.2569 52.8086 100.549 53.3559 102.007C53.9028 103.464 54.1765 105.004 54.1765 106.626C54.1765 107.76 54.1045 108.869 53.9604 109.954C53.8164 111.03 53.5501 112.007 53.1613 112.883C52.7798 113.751 52.2254 114.447 51.4983 114.971C50.7783 115.488 49.8424 115.758 48.6905 115.779C48.0785 115.801 47.4846 115.729 46.9087 115.564C46.3327 115.398 45.8431 115.133 45.44 114.767C45.0368 114.394 44.7921 113.92 44.7056 113.346H44.576C44.4033 113.769 44.1153 114.164 43.7121 114.53C43.309 114.889 42.7942 115.176 42.1679 115.392C41.5487 115.6 40.8288 115.686 40.0081 115.65C39.1009 115.614 38.2838 115.41 37.5567 115.036C36.8295 114.663 36.2068 114.146 35.6884 113.485C35.1773 112.825 34.7849 112.043 34.5113 111.138C34.2378 110.233 34.101 109.228 34.101 108.123C34.101 107.061 34.2557 106.109 34.5653 105.269C34.8749 104.423 35.2961 103.694 35.8288 103.084C36.3688 102.466 36.9879 101.978 37.6863 101.619C38.3846 101.26 39.1225 101.034 39.9001 100.941C40.656 100.854 41.3507 100.876 41.9843 101.005C42.6178 101.134 43.1434 101.332 43.5609 101.598C43.9857 101.863 44.2521 102.154 44.3601 102.47H44.5004V101.264H47.157V111.256C47.157 111.824 47.3046 112.304 47.5998 112.7C47.9022 113.094 48.3305 113.292 48.8849 113.292C49.5401 113.292 50.0512 113.051 50.4184 112.57C50.7927 112.09 51.0555 111.35 51.2067 110.352C51.3651 109.354 51.4443 108.076 51.4443 106.519C51.4443 105.427 51.2967 104.401 51.0015 103.439C50.7135 102.47 50.2852 101.594 49.7164 100.811C49.1549 100.022 48.4637 99.3431 47.643 98.776C46.8223 98.2089 45.8863 97.7711 44.8352 97.4625C43.7914 97.154 42.6358 96.9992 41.3687 96.9992C39.6481 96.9992 38.1182 97.2652 36.7791 97.7961C35.44 98.3201 34.3097 99.0777 33.3882 100.068C32.4739 101.059 31.7792 102.247 31.304 103.633C30.836 105.011 30.6021 106.558 30.6021 108.274C30.6021 110.061 30.8432 111.648 31.3256 113.033C31.808 114.412 32.5207 115.575 33.4638 116.522C34.4069 117.469 35.5732 118.188 36.9627 118.676C38.3522 119.171 39.9541 119.419 41.7683 119.419C42.5746 119.419 43.3666 119.347 44.1441 119.203C44.9217 119.067 45.6128 118.909 46.2175 118.73C46.8295 118.557 47.2866 118.417 47.589 118.31L48.3449 120.668C47.8986 120.876 47.3046 121.081 46.5631 121.282C45.8287 121.483 45.0296 121.648 44.1657 121.777C43.309 121.906 42.463 121.971 41.6279 121.971ZM40.6344 113.012C41.5703 113.012 42.3226 112.825 42.8914 112.452C43.4674 112.078 43.8813 111.522 44.1333 110.783C44.3925 110.036 44.522 109.103 44.522 107.983C44.5148 106.892 44.3745 106.023 44.1009 105.377C43.8345 104.724 43.4169 104.257 42.8482 103.977C42.2866 103.69 41.5631 103.546 40.6776 103.546C39.8641 103.546 39.1693 103.744 38.5934 104.139C38.0246 104.534 37.5891 105.068 37.2867 105.743C36.9915 106.418 36.8403 107.168 36.8331 107.994C36.8403 108.862 36.9627 109.681 37.2003 110.449C37.4451 111.21 37.841 111.827 38.3882 112.301C38.9425 112.775 39.6913 113.012 40.6344 113.012Z" fill="white"/>
<path d="M102.448 121.971C100.217 121.971 98.2367 121.666 96.5087 121.056C94.7881 120.452 93.3375 119.562 92.1568 118.385C90.9762 117.215 90.0799 115.779 89.4679 114.078C88.856 112.376 88.5503 110.435 88.5503 108.252C88.5503 106.127 88.8597 104.218 89.4786 102.523C90.098 100.829 90.998 99.3862 92.1787 98.1946C93.3663 96.996 94.81 96.0804 96.5087 95.449C98.2079 94.817 100.138 94.501 102.297 94.501C104.364 94.501 106.185 94.8244 107.762 95.4703C109.338 96.1166 110.663 97.0029 111.736 98.1302C112.815 99.2569 113.629 100.549 114.176 102.007C114.723 103.464 114.997 105.004 114.997 106.626C114.997 107.76 114.925 108.869 114.781 109.954C114.637 111.03 114.371 112.007 113.982 112.883C113.6 113.751 113.046 114.447 112.319 114.971C111.599 115.488 110.663 115.758 109.511 115.779C108.899 115.801 108.305 115.729 107.729 115.564C107.153 115.398 106.664 115.133 106.261 114.767C105.857 114.394 105.613 113.92 105.526 113.346H105.396C105.224 113.769 104.936 114.164 104.533 114.53C104.129 114.889 103.615 115.176 102.988 115.392C102.369 115.6 101.649 115.686 100.829 115.65C99.9216 115.614 99.1042 115.41 98.3771 115.036C97.6499 114.663 97.0273 114.146 96.5087 113.485C95.9976 112.825 95.6055 112.043 95.3318 111.138C95.0581 110.233 94.9215 109.228 94.9215 108.123C94.9215 107.061 95.0762 106.109 95.3856 105.269C95.6956 104.423 96.1166 103.694 96.6495 103.084C97.1895 102.466 97.8083 101.978 98.5067 101.619C99.2051 101.26 99.9429 101.034 100.721 100.941C101.477 100.854 102.171 100.876 102.805 101.005C103.438 101.134 103.964 101.332 104.382 101.598C104.806 101.863 105.073 102.154 105.18 102.47H105.321V101.264H107.978V111.256C107.978 111.824 108.125 112.304 108.42 112.7C108.723 113.094 109.151 113.292 109.706 113.292C110.361 113.292 110.872 113.051 111.239 112.57C111.613 112.09 111.876 111.35 112.027 110.352C112.185 109.354 112.265 108.076 112.265 106.519C112.265 105.427 112.117 104.401 111.822 103.439C111.534 102.47 111.106 101.594 110.537 100.811C109.976 100.022 109.284 99.3431 108.464 98.776C107.643 98.2089 106.707 97.7711 105.656 97.4625C104.612 97.154 103.457 96.9992 102.19 96.9992C100.468 96.9992 98.9388 97.2652 97.5997 97.7961C96.2606 98.3201 95.1301 99.0777 94.2087 100.068C93.2943 101.059 92.5997 102.247 92.1243 103.633C91.6564 105.011 91.4227 106.558 91.4227 108.274C91.4227 110.061 91.6639 111.648 92.1462 113.033C92.6285 114.412 93.3412 115.575 94.2845 116.522C95.2277 117.469 96.394 118.188 97.7833 118.676C99.1725 119.171 100.775 119.419 102.589 119.419C103.395 119.419 104.187 119.347 104.965 119.203C105.742 119.067 106.433 118.909 107.038 118.73C107.65 118.557 108.107 118.417 108.41 118.31L109.166 120.668C108.719 120.876 108.125 121.081 107.384 121.282C106.649 121.483 105.85 121.648 104.986 121.777C104.129 121.906 103.284 121.971 102.448 121.971ZM101.455 113.012C102.391 113.012 103.143 112.825 103.712 112.452C104.288 112.078 104.702 111.522 104.954 110.783C105.213 110.036 105.343 109.103 105.343 107.983C105.336 106.892 105.195 106.023 104.922 105.377C104.655 104.724 104.238 104.257 103.669 103.977C103.107 103.69 102.384 103.546 101.498 103.546C100.684 103.546 99.9899 103.744 99.4137 104.139C98.8449 104.534 98.4096 105.068 98.1071 105.743C97.8121 106.418 97.6611 107.168 97.6536 107.994C97.6611 108.862 97.7833 109.681 98.0207 110.449C98.2656 111.21 98.6614 111.827 99.2088 112.301C99.7631 112.775 100.512 113.012 101.455 113.012Z" fill="white"/>
<path d="M59.7534 134.859C67.1335 141.508 82.0009 150.127 82.4277 131.401" stroke="white" stroke-width="4"/>
<path d="M74.1582 123.421C74.1582 125.184 72.7252 126.613 70.9572 126.613C69.1891 126.613 67.7561 125.184 67.7561 123.421C67.7561 121.658 69.1891 120.229 70.9572 120.229C72.7252 120.229 74.1582 121.658 74.1582 123.421Z" fill="white"/>
<path d="M96.0323 0L63.488 68.1172H67.977L96.0323 74.4781V0Z" fill="#EB0202"/>
</svg>
