<?xml version="1.0" encoding="UTF-8"?>
<svg id="_レイヤー_2" data-name="レイヤー_2" xmlns="http://www.w3.org/2000/svg" viewBox="0 0 271.81 95.25">
  <defs>
    <style>
      .cls-1 {
        fill: #e60039;
      }

      .cls-2 {
        fill: #fff;
      }
    </style>
  </defs>
  <g id="_レイヤー_1-2" data-name="レイヤー_1">
    <g>
      <path class="cls-1" d="M121.91,84.38c-3.56,1.09-7.18,1.58-10.96,1.58s-7.18-.49-10.47-1.58c-.97-2.79-1.4-9.28-1.4-19.42,0-6.07.38-12.14,1.19-18.14.54-.12,1.24-.24,2.1-.24.76,0,1.46.24,2.21.61,0,2-.05,4.98-.05,8.86-.11,4-.11,6.98-.11,8.92,0,6.68.16,11.65.59,15.05,1.4.36,3.35.49,5.94.49,3.4,0,8.26-.79,14.62-2.37.38.55.81,1.88,1.3,3.94-.49.73-2.16,1.46-4.96,2.31Z"/>
      <path class="cls-1" d="M152.48,63.68c-1.4,0-2.7-.55-3.83-1.64.7-2.31,1.24-3.94,1.56-4.86-1.83-.67-4.48-1.46-8.04-2.37-6.04-1.52-10.52-2.73-13.54-3.7,0-2.37.32-3.94,1.08-4.79,13.06,2.55,21.96,5.16,26.65,7.89-1.67,4.31-2.97,7.46-3.88,9.47ZM140.18,86.14c-5.99,0-9.6-3.95-10.9-11.96,0-.55.59-.97,1.83-1.33.65-.12,1.35-.24,2.16-.24.43,1.33,1.13,3.03,2.1,5.1,1.24,1.94,3.08,2.85,5.45,2.85,3.18,0,7.61-.42,13.33-1.34.59,1.4.92,3.04.92,4.86-5.77,1.4-10.74,2.06-14.89,2.06ZM156.26,49.97c-1.19.55-1.89.79-2.16.67-.22,0-.54-.55-.86-1.64-.38-1.09-.59-1.88-.59-2.43,1.83-1.03,3.13-1.58,3.78-1.58,0,0,.27.67.81,1.88.22.49.43,1.21.76,2.06,0,.18-.59.55-1.73,1.03ZM163.65,46.69c-1.08.55-1.78.79-2.1.67-.16,0-.49-.67-1.02-2.12-.22-.61-.38-1.21-.49-1.94.76-.49,1.4-.79,1.83-.97,1.08-.42,1.67-.61,1.83-.55.65.49,1.13,1.76,1.56,3.82,0,.24-.54.61-1.62,1.09Z"/>
      <path class="cls-1" d="M193.34,85.6c-2.48.73-6.2,1.09-11.1,1.03-10.48-.06-16.51-1.4-17.98-4,0-2.67,3.16-8.13,9.58-16.38-2.48-4.13-4.85-9.89-7.16-17.36.85-.91,2.31-1.64,4.4-2.25,1.63,4.25,2.65,6.8,2.99,7.59,1.18,2.91,2.31,5.34,3.44,7.4,3.04-3.64,6.37-7.28,9.97-10.92.51,0,1.24.42,2.14,1.27.56.61,1.07,1.27,1.47,2.06-.45.85-1.97,2.79-4.56,5.77-3.83,4.37-6.54,7.52-8.17,9.59-2.93,3.7-5.35,7.16-7.16,10.38,3.55.85,8.28,1.21,14.15,1.21,1.8,0,4.28-.06,7.44-.3.45.85.73,1.88.73,3.16,0,.73-.06,1.27-.17,1.76Z"/>
      <path class="cls-1" d="M230.14,65.52c-4.94-.12-9.73-.36-14.31-.73-2.89,14.44-4.52,22.03-4.89,22.7-2.1,0-3.58-.36-4.42-1.21,1.47-8.44,2.79-15.66,4.05-21.72-7.36-.42-12.41-.79-15.2-1.09-.26-.67-.37-1.46-.37-2.37,0-1.09.16-2,.58-2.73.58-.12,3.1-.06,7.52.06,3.42.12,6.26.3,8.57.49l2.68-12.87c1.84,0,3.37.42,4.63,1.27-.42,2.67-1.1,6.68-2.05,11.95,8,.67,12.52,1.09,13.57,1.33.16.61.26,1.4.26,2.25,0,.97-.21,1.82-.63,2.67Z"/>
      <path class="cls-1" d="M262.18,62.06c-3.7.55-11,1.27-21.8,2.18.11,4.01.05,8.86-.11,14.5,2.17.73,6.77,1.27,13.86,1.7.11.85.16,1.58.16,2.12,0,.73-.16,1.52-.42,2.49-1.06.24-2.17.3-3.44.3-2.01,0-4.55-.18-7.56-.61-3.81-.49-6.19-1.09-7.14-1.82-.32-.91-.48-6.55-.48-16.99,0-4.73.16-9.89.58-15.6.95-.49,2.38-.55,4.28-.18.11,2.25.21,5.1.21,8.5,9.68-.73,16.82-1.15,21.48-1.27.32.67.53,1.46.53,2.43,0,.73-.05,1.46-.16,2.25ZM262.61,50.11c-1.22.55-1.96.79-2.27.67-.16,0-.48-.73-.9-2.18-.21-.79-.32-1.52-.42-2.12.85-.49,2.06-.97,3.76-1.58.21.12.53.85.95,2.06.11.49.37,1.21.69,2.12,0,.18-.64.55-1.8,1.03ZM270.07,46.89c-.95.49-1.59.73-2.01.61-.21,0-.58-.67-1.11-2.12-.21-1.21-.32-1.94-.32-2.12,1.48-.79,2.65-1.27,3.6-1.4.21,0,.74,1.4,1.59,4.07,0,.3-.58.61-1.75.97Z"/>
      <path class="cls-1" d="M53.36,38.05l-.66-38.05-11.5,37.29C18.26,38.03,0,50.71,0,66.25s19.39,28.99,43.32,28.99,43.32-12.98,43.32-28.99c0-13.7-14.2-25.17-33.28-28.2Z"/>
      <path class="cls-2" d="M65.58,76.38c-3.25,0-5.83-.98-7.75-2.97-2.05-2.11-3.1-5.08-3.1-8.99-.03-3.83,1.08-7.04,3.32-9.54,2.11-2.42,4.68-3.64,7.72-3.64,2.51,0,4.62,1.02,6.35,2.97,1.8,2.03,2.7,4.65,2.7,7.78,0,2.85-.68,5.12-1.98,6.8-1.24,1.56-2.48,2.35-3.75,2.35s-1.98-.78-2.14-2.35c-1.12,1.64-2.29,2.42-3.56,2.42-1.18,0-2.11-.43-2.76-1.33s-.99-2.11-.99-3.6c-.03-2.35.56-4.57,1.74-6.68,1.24-2.27,2.76-3.4,4.52-3.4,1.24,0,2.17.7,2.76,2.11l.22-1.17h2.01l-1.67,8.01c-.31,1.41-.43,2.31-.43,2.74,0,.47.19.7.62.7.59,0,1.24-.43,1.92-1.33.99-1.29,1.52-3.28,1.52-5.94,0-2.11-.71-3.95-2.11-5.43-1.43-1.49-3.1-2.27-4.96-2.27-2.42,0-4.43,1.02-6.04,3.05-1.64,2.03-2.45,4.61-2.45,7.74s.77,5.59,2.32,7.23c1.46,1.56,3.53,2.35,6.2,2.35s5.18-1.41,7.75-4.26l1.36,1.13c-2.42,3.67-5.52,5.51-9.33,5.51ZM67,59.61c-.37-.43-.77-.67-1.24-.67-.87,0-1.7.9-2.51,2.66-.74,1.6-1.08,2.97-1.08,4.14,0,1.72.43,2.54,1.36,2.54.84,0,1.67-.7,2.51-2.11.96-1.64,1.46-3.32,1.46-5,0-.59-.19-1.09-.5-1.56Z"/>
      <path class="cls-2" d="M23.33,75.53c-3.29,0-5.9-.98-7.84-2.97-2.07-2.11-3.14-5.08-3.14-8.99-.03-3.83,1.1-7.04,3.36-9.54,2.13-2.42,4.74-3.64,7.81-3.64,2.54,0,4.67,1.02,6.43,2.97,1.82,2.03,2.73,4.65,2.73,7.78,0,2.85-.69,5.12-2.01,6.8-1.25,1.56-2.51,2.35-3.8,2.35s-2.01-.78-2.16-2.35c-1.13,1.64-2.32,2.42-3.61,2.42-1.19,0-2.13-.43-2.79-1.33s-1-2.11-1-3.6c-.03-2.35.56-4.57,1.76-6.68,1.25-2.27,2.79-3.4,4.58-3.4,1.25,0,2.2.7,2.79,2.11l.22-1.17h2.04l-1.69,8.01c-.31,1.41-.44,2.31-.44,2.74,0,.47.19.7.63.7.6,0,1.25-.43,1.94-1.33,1-1.29,1.54-3.28,1.54-5.94,0-2.11-.72-3.95-2.13-5.43-1.44-1.49-3.14-2.27-5.02-2.27-2.45,0-4.49,1.02-6.12,3.05-1.66,2.03-2.48,4.61-2.48,7.74s.78,5.59,2.35,7.23c1.47,1.56,3.58,2.35,6.27,2.35s5.24-1.41,7.84-4.26l1.38,1.13c-2.45,3.67-5.58,5.51-9.44,5.51ZM24.77,58.76c-.38-.43-.78-.67-1.25-.67-.88,0-1.73.9-2.54,2.66-.75,1.6-1.1,2.97-1.1,4.14,0,1.72.44,2.54,1.38,2.54.85,0,1.69-.7,2.54-2.11.97-1.64,1.47-3.32,1.47-5,0-.59-.19-1.09-.5-1.56Z"/>
      <ellipse class="cls-2" cx="42.08" cy="69.22" rx="3.78" ry="2.59"/>
      <path class="cls-2" d="M46.97,87.87c-2.43,0-5.38-3.38-5.92-4.72-.21-.51.04-1.09.56-1.3s1.1.04,1.3.56c.48,1.19,3.21,3.75,4.17,3.45.01,0,1.27-.58-.15-7.1-.12-.54.22-1.07.76-1.19.54-.12,1.07.23,1.19.76.79,3.65,1.53,8.6-1.22,9.44-.22.07-.46.1-.69.1Z"/>
    </g>
  </g>
</svg>